<svg width="72" height="48" viewBox="0 0 72 48" fill="none" xmlns="http://www.w3.org/2000/svg">
<path d="M4 0.5H68C69.933 0.5 71.5 2.067 71.5 4V44C71.5 45.933 69.933 47.5 68 47.5H4C2.067 47.5 0.5 45.933 0.5 44V4C0.5 2.067 2.067 0.5 4 0.5Z" fill="white" stroke="#DDDDDD"/>
<path d="M40.9016 24C40.9016 31.7872 34.6556 38.1 26.9508 38.1C19.246 38.1 13 31.7872 13 24C13 16.2128 19.246 9.89999 26.9508 9.89999C34.6556 9.89999 40.9016 16.2128 40.9016 24Z" fill="#ED0006"/>
<path d="M58.9999 24C58.9999 31.7872 52.7539 38.1 45.0491 38.1C37.3443 38.1 31.0983 31.7872 31.0983 24C31.0983 16.2128 37.3443 9.89999 45.0491 9.89999C52.7539 9.89999 58.9999 16.2128 58.9999 24Z" fill="#0099DF"/>
<path fill-rule="evenodd" clip-rule="evenodd" d="M36.0001 34.7314C38.9997 32.1452 40.9016 28.297 40.9016 23.9999C40.9016 19.7027 38.9997 15.8545 36.0001 13.2683C33.0006 15.8545 31.0986 19.7027 31.0986 23.9999C31.0986 28.297 33.0006 32.1452 36.0001 34.7314Z" fill="#6C6BBD"/>
</svg>
